<svg width="183" height="23" viewBox="0 0 183 23" fill="none" xmlns="http://www.w3.org/2000/svg">
<path d="M4.684 22H0.624V0.888H4.936V9.624C5.36533 8.98933 6 8.48533 6.84 8.112C7.69867 7.72 8.632 7.524 9.64 7.524C10.9467 7.524 12.076 7.84133 13.028 8.476C13.9987 9.11067 14.7453 9.99733 15.268 11.136C15.7907 12.2747 16.052 13.6093 16.052 15.14C16.052 16.5773 15.7627 17.8467 15.184 18.948C14.624 20.0307 13.8307 20.8707 12.804 21.468C11.796 22.0653 10.6293 22.364 9.304 22.364C8.33333 22.364 7.44667 22.168 6.644 21.776C5.86 21.3653 5.28133 20.8427 4.908 20.208L4.684 22ZM4.964 14.916C4.964 15.6067 5.104 16.2227 5.384 16.764C5.68267 17.2867 6.084 17.6973 6.588 17.996C7.11067 18.276 7.708 18.416 8.38 18.416C9.07067 18.416 9.65867 18.2667 10.144 17.968C10.648 17.6693 11.0307 17.2587 11.292 16.736C11.572 16.2133 11.712 15.6067 11.712 14.916C11.712 14.2253 11.572 13.6187 11.292 13.096C11.0307 12.5733 10.648 12.1627 10.144 11.864C9.65867 11.5653 9.07067 11.416 8.38 11.416C7.708 11.416 7.11067 11.5653 6.588 11.864C6.084 12.144 5.68267 12.5453 5.384 13.068C5.104 13.5907 4.964 14.2067 4.964 14.916ZM27.502 8H31.814V22H27.754L27.474 20.432C27.0447 21.0107 26.4287 21.4773 25.626 21.832C24.842 22.1867 24.03 22.364 23.19 22.364C21.6034 22.364 20.3434 21.8693 19.41 20.88C18.4954 19.872 18.038 18.5093 18.038 16.792V8H22.35V15.224C22.35 16.3627 22.5554 17.2027 22.966 17.744C23.3767 18.2667 24.0207 18.528 24.898 18.528C25.8314 18.528 26.494 18.276 26.886 17.772C27.2967 17.2493 27.502 16.4187 27.502 15.28V8ZM39.3618 22H35.0498V8H39.1098L39.3898 9.456C39.8191 8.85867 40.4071 8.392 41.1538 8.056C41.9191 7.72 42.7591 7.552 43.6738 7.552C45.3351 7.552 46.6231 8.06533 47.5378 9.092C48.4711 10.1 48.9378 11.5187 48.9378 13.348V22H44.6258V14.384C44.6258 13.5067 44.4018 12.8067 43.9538 12.284C43.5058 11.7427 42.9084 11.472 42.1618 11.472C41.3031 11.472 40.6218 11.7333 40.1178 12.256C39.6138 12.76 39.3618 13.4507 39.3618 14.328V22ZM56.3423 22H52.0303V0.888H56.3423V13.04L60.8783 8H66.2823L61.0183 13.544L66.1143 22H61.1303L57.9943 16.764L56.3423 18.5V22ZM77.6857 8V12.06H76.3137C75.0817 12.06 74.111 12.3587 73.4017 12.956C72.711 13.5533 72.3657 14.5427 72.3657 15.924V22H68.0537V8.028H72.1137L72.4497 11.024H72.0577C72.2444 10.0907 72.6644 9.32533 73.3177 8.728C73.9897 8.112 74.895 7.804 76.0337 7.804C76.295 7.804 76.5564 7.82267 76.8177 7.86C77.0977 7.87867 77.387 7.92533 77.6857 8ZM80.0386 22.364C79.3292 22.364 78.7226 22.1213 78.2186 21.636C77.7146 21.132 77.4626 20.5347 77.4626 19.844C77.4626 19.1347 77.7146 18.5373 78.2186 18.052C78.7226 17.548 79.3292 17.296 80.0386 17.296C80.7292 17.296 81.3266 17.548 81.8306 18.052C82.3532 18.5373 82.6146 19.1347 82.6146 19.844C82.6146 20.5347 82.3532 21.132 81.8306 21.636C81.3266 22.1213 80.7292 22.364 80.0386 22.364Z" fill="#5BFF6C"/>
<path d="M83.8002 8H99.5362V11.584H83.8002V8ZM93.0962 1.056V4.752C92.8535 4.752 92.6295 4.752 92.4242 4.752C92.2375 4.752 92.0602 4.752 91.8922 4.752C91.1455 4.752 90.6509 4.95733 90.4082 5.368C90.1655 5.77867 90.0442 6.28267 90.0442 6.88V22H85.7322V6.88C85.7322 5.48 85.9562 4.34133 86.4042 3.464C86.8522 2.58667 87.4869 1.94267 88.3082 1.532C89.1295 1.10267 90.0815 0.888 91.1642 0.888C91.4629 0.888 91.7709 0.906666 92.0882 0.943999C92.4242 0.962665 92.7602 0.999999 93.0962 1.056ZM95.1962 22V8H99.5362V22H95.1962ZM97.3802 5.816C96.6895 5.816 96.1015 5.58267 95.6162 5.116C95.1495 4.63067 94.9162 4.04267 94.9162 3.352C94.9162 2.66133 95.1495 2.08267 95.6162 1.616C96.1015 1.14933 96.6895 0.915999 97.3802 0.915999C98.0522 0.915999 98.6215 1.14933 99.0882 1.616C99.5735 2.08267 99.8162 2.66133 99.8162 3.352C99.8162 4.04267 99.5735 4.63067 99.0882 5.116C98.6215 5.58267 98.0522 5.816 97.3802 5.816ZM107.12 22H102.808V8H106.868L107.148 9.456C107.577 8.85867 108.165 8.392 108.912 8.056C109.677 7.72 110.517 7.552 111.432 7.552C113.093 7.552 114.381 8.06533 115.296 9.092C116.229 10.1 116.696 11.5187 116.696 13.348V22H112.384V14.384C112.384 13.5067 112.16 12.8067 111.712 12.284C111.264 11.7427 110.666 11.472 109.92 11.472C109.061 11.472 108.38 11.7333 107.876 12.256C107.372 12.76 107.12 13.4507 107.12 14.328V22ZM124.016 22.364C122.541 22.364 121.365 21.9627 120.488 21.16C119.629 20.3387 119.2 19.2467 119.2 17.884C119.2 16.596 119.639 15.5693 120.516 14.804C121.412 14.0387 122.7 13.5907 124.38 13.46L128.3 13.152V12.928C128.3 12.4613 128.207 12.0787 128.02 11.78C127.833 11.4627 127.563 11.2293 127.208 11.08C126.872 10.912 126.443 10.828 125.92 10.828C125.005 10.828 124.305 10.996 123.82 11.332C123.353 11.668 123.12 12.1533 123.12 12.788H119.536C119.536 11.724 119.807 10.8 120.348 10.016C120.889 9.232 121.655 8.62533 122.644 8.196C123.652 7.76667 124.819 7.552 126.144 7.552C127.507 7.552 128.655 7.79467 129.588 8.28C130.54 8.76533 131.259 9.47467 131.744 10.408C132.248 11.3413 132.5 12.48 132.5 13.824V22H128.692L128.412 20.152C128.188 20.7867 127.656 21.3187 126.816 21.748C125.995 22.1587 125.061 22.364 124.016 22.364ZM125.528 19.172C126.349 19.172 127.021 18.976 127.544 18.584C128.067 18.1733 128.328 17.5667 128.328 16.764V16.008L126.144 16.204C125.211 16.2787 124.548 16.4373 124.156 16.68C123.783 16.904 123.596 17.24 123.596 17.688C123.596 18.192 123.755 18.5653 124.072 18.808C124.389 19.0507 124.875 19.172 125.528 19.172ZM139.905 22H135.593V8H139.653L139.933 9.456C140.362 8.85867 140.95 8.392 141.697 8.056C142.462 7.72 143.302 7.552 144.217 7.552C145.878 7.552 147.166 8.06533 148.081 9.092C149.014 10.1 149.481 11.5187 149.481 13.348V22H145.169V14.384C145.169 13.5067 144.945 12.8067 144.497 12.284C144.049 11.7427 143.451 11.472 142.705 11.472C141.846 11.472 141.165 11.7333 140.661 12.256C140.157 12.76 139.905 13.4507 139.905 14.328V22ZM151.817 14.944C151.817 13.5067 152.125 12.2373 152.741 11.136C153.357 10.016 154.197 9.13867 155.261 8.504C156.344 7.86933 157.585 7.552 158.985 7.552C161.057 7.552 162.737 8.084 164.025 9.148C165.313 10.212 166.023 11.6587 166.153 13.488H161.813C161.664 12.7787 161.365 12.256 160.917 11.92C160.488 11.584 159.9 11.416 159.153 11.416C158.556 11.416 158.024 11.5653 157.557 11.864C157.109 12.144 156.764 12.5453 156.521 13.068C156.279 13.5907 156.157 14.216 156.157 14.944C156.157 15.6907 156.269 16.3347 156.493 16.876C156.736 17.3987 157.072 17.8 157.501 18.08C157.949 18.36 158.481 18.5 159.097 18.5C159.863 18.5 160.469 18.332 160.917 17.996C161.384 17.6413 161.683 17.1187 161.813 16.428H166.153C166.06 17.604 165.696 18.64 165.061 19.536C164.445 20.4133 163.624 21.104 162.597 21.608C161.571 22.112 160.404 22.364 159.097 22.364C157.623 22.364 156.335 22.056 155.233 21.44C154.151 20.824 153.311 19.9653 152.713 18.864C152.116 17.744 151.817 16.4373 151.817 14.944ZM175.011 22.364C173.611 22.364 172.36 22.0467 171.259 21.412C170.176 20.7773 169.317 19.9093 168.683 18.808C168.067 17.688 167.759 16.4093 167.759 14.972C167.759 13.516 168.057 12.2373 168.655 11.136C169.271 10.016 170.12 9.13867 171.203 8.504C172.285 7.86933 173.527 7.552 174.927 7.552C176.401 7.552 177.671 7.86 178.735 8.476C179.799 9.07333 180.62 9.932 181.199 11.052C181.777 12.1533 182.067 13.4693 182.067 15V16.092L170.027 16.148L170.083 13.488H177.783C177.783 12.7413 177.531 12.1533 177.027 11.724C176.523 11.276 175.832 11.052 174.955 11.052C174.227 11.052 173.629 11.192 173.163 11.472C172.715 11.752 172.379 12.1907 172.155 12.788C171.931 13.3667 171.819 14.1133 171.819 15.028C171.819 16.3347 172.08 17.3053 172.603 17.94C173.144 18.556 173.975 18.864 175.095 18.864C175.916 18.864 176.597 18.724 177.139 18.444C177.68 18.164 178.025 17.772 178.175 17.268H182.123C181.88 18.8173 181.115 20.0587 179.827 20.992C178.539 21.9067 176.933 22.364 175.011 22.364Z" fill="white"/>
</svg>
