<svg width="14" height="20" viewBox="0 0 14 20" fill="none" xmlns="http://www.w3.org/2000/svg">
<g clip-path="url(#clip0_653_78)">
<path d="M3.33333 19.9999C5.17333 19.9999 6.66667 18.5066 6.66667 16.6666V13.3333H3.33333C1.49333 13.3333 0 14.8266 0 16.6666C0 18.5066 1.49333 19.9999 3.33333 19.9999Z" fill="#0ACF83"/>
<path d="M0 10.0001C0 8.16008 1.49333 6.66675 3.33333 6.66675H6.66667V13.3334H3.33333C1.49333 13.3334 0 11.8401 0 10.0001Z" fill="#A259FF"/>
<path d="M0 3.33333C0 1.49333 1.49333 0 3.33333 0H6.66667V6.66667H3.33333C1.49333 6.66667 0 5.17333 0 3.33333Z" fill="#F24E1E"/>
<path d="M6.6665 0H9.99984C11.8398 0 13.3332 1.49333 13.3332 3.33333C13.3332 5.17333 11.8398 6.66667 9.99984 6.66667H6.6665V0Z" fill="#FF7262"/>
<path d="M13.3332 10.0001C13.3332 11.8401 11.8398 13.3334 9.99984 13.3334C8.15984 13.3334 6.6665 11.8401 6.6665 10.0001C6.6665 8.16008 8.15984 6.66675 9.99984 6.66675C11.8398 6.66675 13.3332 8.16008 13.3332 10.0001Z" fill="#1ABCFE"/>
</g>
<defs>
<clipPath id="clip0_653_78">
<rect width="13.3333" height="20" fill="white"/>
</clipPath>
</defs>
</svg>
